<svg width="33" height="33" viewBox="0 0 33 33" fill="none" xmlns="http://www.w3.org/2000/svg">
<g clip-path="url(#clip0_148_177989)">
<path d="M25.328 30.5648C23.6278 32.2129 21.7715 31.9527 19.9846 31.172C18.0936 30.374 16.3588 30.3393 14.3637 31.172C11.8655 32.2476 10.547 31.9353 9.05499 30.5648C0.588877 21.8385 1.83798 8.54943 11.4491 8.06367C13.7912 8.18511 15.4219 9.34747 16.7925 9.45156C18.8396 9.03519 20.8 7.83814 22.9859 7.99428C25.6056 8.20246 27.5833 9.24337 28.8844 11.117C23.4717 14.3612 24.7555 21.4915 29.7172 23.4866C28.7283 26.0889 27.4445 28.6738 25.3106 30.5822L25.328 30.5648ZM16.619 7.95958C16.3588 4.09084 19.4988 0.898701 23.1074 0.586426C23.6105 5.06236 19.0478 8.39329 16.619 7.95958Z" fill="black"/>
</g>
<defs>
<clipPath id="clip0_148_177989">
<rect width="32.3316" height="32.3316" fill="white" transform="translate(0.398438 0.0350342)"/>
</clipPath>
</defs>
</svg>
