<svg width="33" height="33" viewBox="0 0 33 33" fill="none" xmlns="http://www.w3.org/2000/svg">
<g clip-path="url(#clip0_148_177986)">
<path d="M32.7555 16.2009C32.7555 7.27277 25.5177 0.0350342 16.5896 0.0350342C7.66157 0.0350342 0.423828 7.27277 0.423828 16.2009C0.423828 24.2696 6.33547 30.9576 14.0637 32.1703V20.8738H9.95914V16.2009H14.0637V12.6393C14.0637 8.58776 16.4772 6.34981 20.1699 6.34981C21.9385 6.34981 23.7885 6.66555 23.7885 6.66555V10.6439H21.7501C19.7419 10.6439 19.1156 11.89 19.1156 13.1685V16.2009H23.599L22.8823 20.8738H19.1156V32.1703C26.8438 30.9576 32.7555 24.2697 32.7555 16.2009Z" fill="#1877F2"/>
<path d="M22.882 20.8736L23.5988 16.2007H19.1153V13.1683C19.1153 11.8897 19.7416 10.6437 21.7498 10.6437H23.7882V6.66535C23.7882 6.66535 21.9382 6.34961 20.1695 6.34961C16.477 6.34961 14.0635 8.58757 14.0635 12.6391V16.2007H9.95886V20.8736H14.0635V32.1701C14.8991 32.301 15.7436 32.3667 16.5894 32.3665C17.4352 32.3667 18.2797 32.301 19.1153 32.1701V20.8736H22.882Z" fill="white"/>
</g>
<defs>
<clipPath id="clip0_148_177986">
<rect width="32.3316" height="32.3316" fill="white" transform="translate(0.42395 0.0350342)"/>
</clipPath>
</defs>
</svg>
