<svg width="33" height="33" viewBox="0 0 33 33" fill="none" xmlns="http://www.w3.org/2000/svg">
<path d="M12.3133 3.18388C9.52881 4.14984 7.12748 5.98327 5.46201 8.41486C3.79655 10.8464 2.95474 13.748 3.06022 16.6934C3.16571 19.6388 4.21294 22.4727 6.04809 24.7789C7.88324 27.0852 10.4096 28.7421 13.256 29.5064C15.5637 30.1019 17.9815 30.128 20.3015 29.5826C22.4032 29.1105 24.3463 28.1007 25.9405 26.6521C27.5997 25.0983 28.804 23.1217 29.424 20.9347C30.0979 18.5565 30.2178 16.0554 29.7745 13.6236H16.8158V18.9992H24.3206C24.1706 19.8565 23.8492 20.6748 23.3756 21.4051C22.902 22.1353 22.2859 22.7625 21.5643 23.2491C20.6478 23.8553 19.6148 24.2632 18.5314 24.4466C17.4449 24.6486 16.3304 24.6486 15.2438 24.4466C14.1426 24.2189 13.1008 23.7643 12.1848 23.1119C10.7134 22.0703 9.60848 20.5905 9.02787 18.8838C8.43744 17.145 8.43744 15.26 9.02787 13.5213C9.44116 12.3025 10.1244 11.1928 11.0266 10.2751C12.059 9.2055 13.366 8.44097 14.8044 8.06536C16.2427 7.68975 17.7567 7.71756 19.1802 8.14575C20.2923 8.48712 21.3092 9.08356 22.1499 9.88752C22.9961 9.04567 23.8409 8.20163 24.6842 7.35542C25.1197 6.90039 25.5943 6.46712 26.0232 6.0012C24.7399 4.80694 23.2335 3.87767 21.5904 3.26662C18.5983 2.18016 15.3243 2.15097 12.3133 3.18388Z" fill="white"/>
<path d="M12.3133 3.18311C15.3241 2.14949 18.598 2.17792 21.5904 3.26367C23.2338 3.87887 24.7395 4.81262 26.021 6.01131C25.5856 6.47723 25.1262 6.91267 24.682 7.36554C23.8373 8.20884 22.9932 9.04925 22.1499 9.88675C21.3092 9.08279 20.2923 8.48635 19.1802 8.14498C17.7571 7.71528 16.2432 7.68586 14.8045 8.05994C13.3658 8.43402 12.0579 9.19714 11.0244 10.2656C10.1222 11.1834 9.43898 12.293 9.02569 13.5118L4.51233 10.0174C6.12784 6.81375 8.92499 4.36321 12.3133 3.18311Z" fill="#E33629"/>
<path d="M3.3144 13.4793C3.55699 12.2771 3.95974 11.1128 4.51187 10.0176L9.02523 13.5207C8.4348 15.2595 8.4348 17.1445 9.02523 18.8832C7.5215 20.0444 6.01705 21.2114 4.51187 22.3842C3.12967 19.6328 2.70812 16.4981 3.3144 13.4793Z" fill="#F8BD00"/>
<path d="M16.8157 13.6207H29.7744C30.2177 16.0525 30.0978 18.5536 29.4239 20.9318C28.8039 23.1188 27.5996 25.0954 25.9404 26.6492C24.4838 25.5127 23.0207 24.3849 21.5642 23.2484C22.2863 22.7613 22.9027 22.1334 23.3763 21.4024C23.8499 20.6714 24.1711 19.8522 24.3205 18.9941H16.8157C16.8135 17.2044 16.8157 15.4126 16.8157 13.6207Z" fill="#587DBD"/>
<path d="M4.51001 22.3843C6.01519 21.2231 7.51964 20.0561 9.02337 18.8833C9.60514 20.5907 10.7116 22.0705 12.1847 23.1114C13.1035 23.7608 14.1475 24.2117 15.2502 24.4352C16.3368 24.6372 17.4512 24.6372 18.5378 24.4352C19.6212 24.2518 20.6542 23.8439 21.5707 23.2377C23.0272 24.3742 24.4903 25.502 25.9469 26.6385C24.3529 28.088 22.4098 29.0985 20.3079 29.5712C17.9879 30.1166 15.5701 30.0905 13.2624 29.495C11.4373 29.0077 9.73244 28.1486 8.25482 26.9716C6.69084 25.73 5.41346 24.1652 4.51001 22.3843Z" fill="#319F43"/>
</svg>
