<svg width="33" height="33" viewBox="0 0 33 33" fill="none" xmlns="http://www.w3.org/2000/svg">
<path d="M27.2557 3.37046H5.38037C4.88403 3.36541 4.40596 3.55746 4.05106 3.90448C3.69615 4.25149 3.49341 4.72513 3.4873 5.22145V27.1852C3.49451 27.6808 3.69774 28.1533 4.05252 28.4994C4.40731 28.8455 4.88475 29.037 5.38037 29.032H27.2557C27.7521 29.0359 28.2299 28.8432 28.5846 28.496C28.9393 28.1487 29.1422 27.6752 29.1488 27.1789V5.21514C29.14 4.72027 28.9361 4.2489 28.5817 3.90347C28.2272 3.55805 27.7507 3.3665 27.2557 3.37046Z" fill="#0076B2"/>
<path d="M7.28666 12.9893H11.0959V25.2458H7.28666V12.9893ZM9.19234 6.8894C9.62924 6.8894 10.0563 7.01899 10.4196 7.26176C10.7828 7.50454 11.0659 7.84959 11.233 8.25328C11.4001 8.65697 11.4437 9.10114 11.3583 9.52962C11.2729 9.9581 11.0624 10.3516 10.7533 10.6604C10.4442 10.9692 10.0505 11.1794 9.62192 11.2644C9.19336 11.3493 8.74922 11.3053 8.3457 11.1378C7.94217 10.9703 7.59738 10.6869 7.35495 10.3235C7.11253 9.95999 6.98335 9.53278 6.98377 9.09587C6.98432 8.51049 7.21726 7.94927 7.63138 7.53554C8.04551 7.1218 8.60695 6.8894 9.19234 6.8894ZM13.4854 12.9893H17.1369V14.672H17.1874C17.6964 13.7086 18.9374 12.6927 20.7905 12.6927C24.6481 12.6843 25.3633 15.2231 25.3633 18.5149V25.2458H21.554V19.2826C21.554 17.8629 21.5288 16.035 19.5747 16.035C17.6207 16.035 17.2883 17.5831 17.2883 19.1901V25.2458H13.4854V12.9893Z" fill="white"/>
</svg>
